<svg width="15" height="14" viewBox="0 0 15 14" fill="none" xmlns="http://www.w3.org/2000/svg"
     >
<path opacity="0.2" d="M11.2256 9.4707C11.6631 9.4707 12.0869 9.43197 12.4971 9.35449C12.9072 9.27702 13.2422 9.19499 13.502 9.1084C13.5977 9.0765 13.6729 9.06055 13.7275 9.06055C13.8187 9.06055 13.9007 9.09701 13.9736 9.16992C14.0511 9.23828 14.0898 9.32943 14.0898 9.44336C14.0898 9.4707 14.0853 9.51172 14.0762 9.56641C14.0716 9.62109 14.0579 9.67806 14.0352 9.7373C13.8255 10.2887 13.5156 10.8037 13.1055 11.2822C12.6953 11.7562 12.21 12.1732 11.6494 12.5332C11.0934 12.8932 10.485 13.1735 9.82422 13.374C9.16341 13.5745 8.47754 13.6748 7.7666 13.6748C6.80046 13.6748 5.90039 13.5062 5.06641 13.1689C4.23698 12.8363 3.51009 12.3669 2.88574 11.7607C2.26595 11.1546 1.7806 10.4437 1.42969 9.62793C1.08333 8.80762 0.910156 7.91211 0.910156 6.94141C0.910156 6.00716 1.08105 5.11165 1.42285 4.25488C1.76921 3.39355 2.25 2.63477 2.86523 1.97852C3.48047 1.31771 4.19824 0.820964 5.01855 0.488281C5.0778 0.465495 5.13477 0.449544 5.18945 0.44043C5.24414 0.431315 5.28743 0.426758 5.31934 0.426758C5.42871 0.426758 5.5153 0.465495 5.5791 0.542969C5.6429 0.615885 5.6748 0.695638 5.6748 0.782227C5.6748 0.80957 5.67025 0.846029 5.66113 0.891602C5.65202 0.932617 5.63607 0.982747 5.61328 1.04199C5.52669 1.24251 5.4515 1.47721 5.3877 1.74609C5.32845 2.01497 5.2806 2.29753 5.24414 2.59375C5.21224 2.88542 5.19629 3.1748 5.19629 3.46191C5.19629 4.37337 5.33757 5.19824 5.62012 5.93652C5.90723 6.67025 6.31738 7.30143 6.85059 7.83008C7.38379 8.35872 8.01953 8.76432 8.75781 9.04688C9.49609 9.32943 10.3187 9.4707 11.2256 9.4707Z" fill="black"/>
</svg>
