<svg width="15" height="16" viewBox="0 0 15 16" fill="none" xmlns="http://www.w3.org/2000/svg">
<path opacity="0.5" d="M7.48633 4.69434C7.94661 4.69434 8.37956 4.7832 8.78516 4.96094C9.19076 5.13411 9.5485 5.37565 9.8584 5.68555C10.1683 5.99544 10.4098 6.35547 10.583 6.76562C10.7607 7.17122 10.8496 7.60417 10.8496 8.06445C10.8496 8.52474 10.7607 8.95768 10.583 9.36328C10.4098 9.76888 10.1683 10.1266 9.8584 10.4365C9.5485 10.7464 9.19076 10.9902 8.78516 11.168C8.37956 11.3457 7.94661 11.4346 7.48633 11.4346C7.02604 11.4346 6.5931 11.3457 6.1875 11.168C5.7819 10.9902 5.42415 10.7464 5.11426 10.4365C4.80436 10.1266 4.56055 9.76888 4.38281 9.36328C4.20964 8.95768 4.12305 8.52474 4.12305 8.06445C4.12305 7.60417 4.20964 7.17122 4.38281 6.76562C4.56055 6.35547 4.80436 5.99544 5.11426 5.68555C5.42415 5.37565 5.7819 5.13411 6.1875 4.96094C6.5931 4.7832 7.02604 4.69434 7.48633 4.69434ZM7.95801 1.16699V2.66406C7.95801 2.78711 7.91243 2.89421 7.82129 2.98535C7.73014 3.0765 7.62077 3.12207 7.49316 3.12207C7.37012 3.12207 7.26302 3.0765 7.17188 2.98535C7.08073 2.89421 7.03516 2.78711 7.03516 2.66406V1.16699C7.03516 1.03939 7.08073 0.930013 7.17188 0.838867C7.26302 0.747721 7.37012 0.702148 7.49316 0.702148C7.62077 0.702148 7.73014 0.747721 7.82129 0.838867C7.91243 0.930013 7.95801 1.03939 7.95801 1.16699ZM10.9795 3.93555L12.0527 2.86914C12.1393 2.77799 12.2441 2.73242 12.3672 2.73242C12.4948 2.73242 12.6042 2.77799 12.6953 2.86914C12.7819 2.95573 12.8252 3.0651 12.8252 3.19727C12.8252 3.32487 12.7819 3.43197 12.6953 3.51855L11.6289 4.57812C11.5378 4.66927 11.4284 4.71484 11.3008 4.71484C11.1777 4.71484 11.0706 4.66927 10.9795 4.57812C10.8929 4.49154 10.8496 4.38444 10.8496 4.25684C10.8496 4.12923 10.8929 4.02214 10.9795 3.93555ZM14.377 8.52246H12.8867C12.7637 8.52246 12.6566 8.47689 12.5654 8.38574C12.4743 8.2946 12.4287 8.1875 12.4287 8.06445C12.4287 7.94141 12.4743 7.83431 12.5654 7.74316C12.6566 7.65202 12.7637 7.60645 12.8867 7.60645H14.377C14.5046 7.60645 14.6139 7.65202 14.7051 7.74316C14.7962 7.83431 14.8418 7.94141 14.8418 8.06445C14.8418 8.1875 14.7962 8.2946 14.7051 8.38574C14.6139 8.47689 14.5046 8.52246 14.377 8.52246ZM11.6289 11.5508L12.6953 12.6172C12.7819 12.7038 12.8252 12.8109 12.8252 12.9385C12.8252 13.0661 12.7819 13.1732 12.6953 13.2598C12.6042 13.3509 12.4948 13.3965 12.3672 13.3965C12.2441 13.3965 12.1393 13.3532 12.0527 13.2666L10.9795 12.2002C10.8929 12.109 10.8496 12.002 10.8496 11.8789C10.8496 11.7513 10.8929 11.6419 10.9795 11.5508C11.0706 11.4642 11.18 11.4209 11.3076 11.4209C11.4352 11.4209 11.5423 11.4642 11.6289 11.5508ZM7.95801 13.4648V14.9619C7.95801 15.085 7.91243 15.1921 7.82129 15.2832C7.73014 15.3743 7.62077 15.4199 7.49316 15.4199C7.37012 15.4199 7.26302 15.3743 7.17188 15.2832C7.08073 15.1921 7.03516 15.085 7.03516 14.9619V13.4648C7.03516 13.3372 7.08073 13.2279 7.17188 13.1367C7.26302 13.0456 7.37012 13 7.49316 13C7.62077 13 7.73014 13.0456 7.82129 13.1367C7.91243 13.2279 7.95801 13.3372 7.95801 13.4648ZM2.29102 12.6104L3.35742 11.5576C3.44401 11.4665 3.55111 11.4209 3.67871 11.4209C3.81087 11.4209 3.92025 11.4665 4.00684 11.5576C4.09342 11.6442 4.13672 11.7513 4.13672 11.8789C4.13672 12.0065 4.09115 12.1136 4 12.2002L2.94043 13.2598C2.85384 13.3509 2.74447 13.3942 2.6123 13.3896C2.4847 13.3896 2.3776 13.3464 2.29102 13.2598C2.20443 13.1686 2.16113 13.0592 2.16113 12.9316C2.16113 12.804 2.20443 12.6969 2.29102 12.6104ZM0.609375 7.60645H2.10645C2.22949 7.60645 2.33659 7.65202 2.42773 7.74316C2.51888 7.83431 2.56445 7.94141 2.56445 8.06445C2.56445 8.1875 2.51888 8.2946 2.42773 8.38574C2.33659 8.47689 2.22949 8.52246 2.10645 8.52246H0.609375C0.486328 8.52246 0.379232 8.47689 0.288086 8.38574C0.19694 8.2946 0.151367 8.1875 0.151367 8.06445C0.151367 7.94141 0.19694 7.83431 0.288086 7.74316C0.379232 7.65202 0.486328 7.60645 0.609375 7.60645ZM3.35742 4.57812L2.29785 3.51172C2.21126 3.42513 2.16797 3.31803 2.16797 3.19043C2.16797 3.06283 2.21126 2.95573 2.29785 2.86914C2.389 2.77799 2.49837 2.7347 2.62598 2.73926C2.75814 2.73926 2.86523 2.78255 2.94727 2.86914L4.00684 3.93555C4.09342 4.01758 4.13672 4.12467 4.13672 4.25684C4.13672 4.389 4.09115 4.49609 4 4.57812C3.91341 4.66927 3.80632 4.71484 3.67871 4.71484C3.55111 4.71484 3.44401 4.66927 3.35742 4.57812Z" fill="white"/>
</svg>
