<svg width="9" height="15" viewBox="0 0 9 15" fill="none" xmlns="http://www.w3.org/2000/svg">
<path d="M8.63281 7.35938C8.63281 7.45833 8.61198 7.55208 8.57031 7.64062C8.53385 7.72396 8.47917 7.80208 8.40625 7.875L2.21875 13.9297C2.07812 14.0703 1.90625 14.1406 1.70312 14.1406C1.57292 14.1406 1.45312 14.1094 1.34375 14.0469C1.23438 13.9844 1.14844 13.8984 1.08594 13.7891C1.02344 13.6849 0.992188 13.5651 0.992188 13.4297C0.992188 13.237 1.0599 13.0677 1.19531 12.9219L6.88281 7.35938L1.19531 1.79688C1.0599 1.65104 0.992188 1.48177 0.992188 1.28906C0.992188 1.15365 1.02344 1.03385 1.08594 0.929688C1.14844 0.820312 1.23438 0.734375 1.34375 0.671875C1.45312 0.609375 1.57292 0.578125 1.70312 0.578125C1.90625 0.578125 2.07812 0.645833 2.21875 0.78125L8.40625 6.84375C8.47917 6.91667 8.53385 6.9974 8.57031 7.08594C8.61198 7.16927 8.63281 7.26042 8.63281 7.35938Z" fill="white" fill-opacity="0.5"/>
</svg>
