<svg width="28" height="27" viewBox="0 0 28 27" xmlns="http://www.w3.org/2000/svg">
<path opacity="0.5"
      d="M18.1719 13.3594C18.1719 13.2812 18.1562 13.2109 18.125 13.1484C18.0938 13.0807 18.0495 13.0182 17.9922 12.9609L11.75 7.01562C11.6458 6.91146 11.5156 6.85938 11.3594 6.85938C11.2656 6.85938 11.1771 6.88281 11.0938 6.92969C11.0104 6.97656 10.9453 7.04167 10.8984 7.125C10.8516 7.20312 10.8281 7.29427 10.8281 7.39844C10.8281 7.53906 10.8776 7.66406 10.9766 7.77344L16.8516 13.3594L10.9766 18.9453C10.8776 19.0547 10.8281 19.1797 10.8281 19.3203C10.8281 19.4245 10.8516 19.5156 10.8984 19.5938C10.9453 19.6771 11.0104 19.7422 11.0938 19.7891C11.1771 19.8359 11.2656 19.8594 11.3594 19.8594C11.5156 19.8594 11.6458 19.8047 11.75 19.6953L17.9922 13.7578C18.0495 13.7005 18.0938 13.6406 18.125 13.5781C18.1562 13.5104 18.1719 13.4375 18.1719 13.3594Z" fill="var(--on-surface-variant)"/>
</svg>
