<svg width="22" height="22" viewBox="0 0 22 22" xmlns="http://www.w3.org/2000/svg" class="gear-icon">
<path
        d="M10.9961 20.3498C10.8659 20.3498 10.7389 20.3433 10.6152 20.3303C10.4915 20.3237 10.3646 20.314 10.2344 20.301L9.66797 21.3752C9.61589 21.4859 9.53776 21.5672 9.43359 21.6193C9.32943 21.6714 9.21224 21.6877 9.08203 21.6681C8.95833 21.6486 8.85417 21.5933 8.76953 21.5021C8.69141 21.4175 8.64583 21.3101 8.63281 21.1799L8.45703 19.9982C8.21615 19.9331 7.97526 19.855 7.73438 19.7638C7.5 19.6792 7.26562 19.5848 7.03125 19.4806L6.15234 20.2717C6.0612 20.3628 5.95703 20.4149 5.83984 20.4279C5.72917 20.4409 5.61198 20.4149 5.48828 20.3498C5.3776 20.2912 5.29948 20.2066 5.25391 20.0959C5.21484 19.9917 5.20833 19.8745 5.23438 19.7443L5.47852 18.5724C5.27669 18.4357 5.07487 18.286 4.87305 18.1232C4.67773 17.9605 4.48893 17.7879 4.30664 17.6056L3.22266 18.0646C2.96875 18.1688 2.75065 18.1102 2.56836 17.8888C2.48372 17.7977 2.4349 17.6968 2.42188 17.5861C2.41536 17.4689 2.44792 17.355 2.51953 17.2443L3.1543 16.2287C3.01107 16.0269 2.8776 15.8153 2.75391 15.5939C2.63021 15.3726 2.51302 15.1447 2.40234 14.9103L1.21094 14.9689C1.08073 14.9754 0.966797 14.9461 0.869141 14.881C0.771484 14.8159 0.69987 14.7215 0.654297 14.5978C0.621745 14.4741 0.621745 14.3569 0.654297 14.2463C0.686849 14.1356 0.751953 14.0412 0.849609 13.9631L1.78711 13.2209C1.72201 12.9865 1.66667 12.7456 1.62109 12.4982C1.57552 12.2443 1.54622 11.9872 1.5332 11.7267L0.390625 11.3654C0.130208 11.2743 0 11.0952 0 10.8283C0 10.5614 0.130208 10.3856 0.390625 10.301L1.5332 9.93963C1.54622 9.67921 1.57552 9.42531 1.62109 9.17791C1.66667 8.93052 1.72201 8.68638 1.78711 8.44549L0.849609 7.69354C0.745443 7.62192 0.677083 7.53403 0.644531 7.42986C0.611979 7.31919 0.615234 7.202 0.654297 7.0783C0.69987 6.9546 0.771484 6.8602 0.869141 6.7951C0.966797 6.73 1.08073 6.7007 1.21094 6.70721L2.40234 6.75604C2.51302 6.52166 2.63021 6.29705 2.75391 6.08221C2.8776 5.86085 3.01107 5.64601 3.1543 5.43768L2.51953 4.41229C2.44792 4.31463 2.41536 4.21046 2.42188 4.09979C2.4349 3.9826 2.48372 3.87843 2.56836 3.78729C2.75065 3.56593 2.96875 3.50734 3.22266 3.61151L4.30664 4.05096C4.48893 3.88169 4.67773 3.71567 4.87305 3.55291C5.07487 3.38364 5.27669 3.23065 5.47852 3.09393L5.23438 1.93182C5.20833 1.7951 5.21484 1.67466 5.25391 1.57049C5.29948 1.45981 5.3776 1.37518 5.48828 1.31658C5.60547 1.25148 5.72266 1.22544 5.83984 1.23846C5.95703 1.25148 6.0612 1.30682 6.15234 1.40447L7.03125 2.17596C7.26562 2.07179 7.5 1.97739 7.73438 1.89276C7.97526 1.80812 8.21615 1.73 8.45703 1.65838L8.63281 0.486506C8.64583 0.362808 8.69141 0.258641 8.76953 0.174006C8.85417 0.0828599 8.95833 0.0275213 9.08203 0.00799006C9.21224 -0.0115412 9.32943 0.00473485 9.43359 0.0568182C9.53776 0.108902 9.61589 0.187027 9.66797 0.291193L10.2344 1.36541C10.3646 1.35239 10.4915 1.34263 10.6152 1.33612C10.7389 1.3296 10.8659 1.32635 10.9961 1.32635C11.1263 1.32635 11.25 1.3296 11.3672 1.33612C11.4909 1.34263 11.6211 1.35239 11.7578 1.36541L12.3145 0.291193C12.3665 0.187027 12.4447 0.108902 12.5488 0.0568182C12.653 0.00473485 12.7702 -0.0115412 12.9004 0.00799006C13.0241 0.0275213 13.125 0.0828599 13.2031 0.174006C13.2878 0.258641 13.3398 0.362808 13.3594 0.486506L13.5254 1.66815C13.7663 1.73976 14.0072 1.81789 14.248 1.90252C14.4889 1.98065 14.7233 2.07179 14.9512 2.17596L15.8301 1.40447C15.9212 1.30682 16.0254 1.25148 16.1426 1.23846C16.2598 1.22544 16.377 1.25148 16.4941 1.31658C16.6048 1.37518 16.6797 1.45981 16.7188 1.57049C16.7643 1.67466 16.7741 1.7951 16.748 1.93182L16.5039 3.09393C16.7057 3.23065 16.9043 3.38364 17.0996 3.55291C17.3014 3.71567 17.4935 3.88169 17.6758 4.05096L18.7598 3.61151C19.0137 3.50734 19.235 3.56593 19.4238 3.78729C19.502 3.87843 19.5443 3.9826 19.5508 4.09979C19.5638 4.21046 19.5345 4.31789 19.4629 4.42205L18.8281 5.43768C18.9779 5.64601 19.1113 5.86085 19.2285 6.08221C19.3522 6.29705 19.4694 6.52166 19.5801 6.75604L20.7812 6.70721C20.9049 6.7007 21.0156 6.73 21.1133 6.7951C21.2174 6.8602 21.2891 6.9546 21.3281 7.0783C21.3672 7.202 21.3672 7.31919 21.3281 7.42986C21.2956 7.53403 21.2305 7.62192 21.1328 7.69354L20.1953 8.44549C20.2604 8.68638 20.3158 8.93052 20.3613 9.17791C20.4134 9.42531 20.4492 9.67921 20.4688 9.93963L21.5918 10.301C21.8587 10.3921 21.9922 10.5679 21.9922 10.8283C21.9922 11.0952 21.8587 11.2743 21.5918 11.3654L20.4688 11.717C20.4492 11.9839 20.4134 12.2443 20.3613 12.4982C20.3158 12.7456 20.2604 12.9865 20.1953 13.2209L21.1328 13.9631C21.2305 14.0412 21.2956 14.1388 21.3281 14.256C21.3672 14.3667 21.3672 14.4806 21.3281 14.5978C21.2891 14.7215 21.2174 14.8159 21.1133 14.881C21.0156 14.9461 20.9049 14.9754 20.7812 14.9689L19.5801 14.9103C19.4694 15.1447 19.3522 15.3726 19.2285 15.5939C19.1113 15.8153 18.9779 16.0269 18.8281 16.2287L19.4629 17.2443C19.5345 17.355 19.5638 17.4689 19.5508 17.5861C19.5443 17.6968 19.502 17.7977 19.4238 17.8888C19.235 18.1102 19.0137 18.1688 18.7598 18.0646L17.6758 17.6056C17.4935 17.7879 17.3014 17.9605 17.0996 18.1232C16.9043 18.286 16.7057 18.4357 16.5039 18.5724L16.748 19.7443C16.8001 20.0243 16.7155 20.2261 16.4941 20.3498C16.377 20.4149 16.2598 20.4409 16.1426 20.4279C16.0254 20.4149 15.9212 20.3628 15.8301 20.2717L14.9512 19.4806C14.7233 19.5848 14.4889 19.6792 14.248 19.7638C14.0072 19.855 13.7663 19.9331 13.5254 19.9982L13.3594 21.1799C13.3398 21.3101 13.2878 21.4175 13.2031 21.5021C13.125 21.5933 13.0273 21.6486 12.9102 21.6681C12.7734 21.6877 12.653 21.6714 12.5488 21.6193C12.4447 21.5672 12.3665 21.4859 12.3145 21.3752L11.7578 20.301C11.6211 20.314 11.4909 20.3237 11.3672 20.3303C11.25 20.3433 11.1263 20.3498 10.9961 20.3498ZM10.9961 18.8654C12.1159 18.8654 13.1543 18.6571 14.1113 18.2404C15.0749 17.8303 15.9147 17.2606 16.6309 16.5314C17.3535 15.7958 17.9167 14.9429 18.3203 13.9728C18.724 12.9963 18.9258 11.9513 18.9258 10.8381C18.9258 9.72479 18.724 8.68312 18.3203 7.71307C17.9167 6.73651 17.3535 5.88364 16.6309 5.15447C15.9147 4.4188 15.0749 3.84588 14.1113 3.43572C13.1543 3.01906 12.1159 2.81072 10.9961 2.81072C9.8763 2.81072 8.83464 3.01906 7.87109 3.43572C6.91406 3.84588 6.07422 4.4188 5.35156 5.15447C4.63542 5.88364 4.07552 6.73651 3.67188 7.71307C3.26823 8.68312 3.06641 9.72479 3.06641 10.8381C3.06641 11.9513 3.26823 12.9963 3.67188 13.9728C4.07552 14.9429 4.63542 15.7958 5.35156 16.5314C6.07422 17.2606 6.91406 17.8303 7.87109 18.2404C8.83464 18.6571 9.8763 18.8654 10.9961 18.8654ZM10.9766 13.4357C10.8854 13.4357 10.7845 13.4292 10.6738 13.4162C10.5697 13.4032 10.4427 13.3771 10.293 13.3381L6.96289 18.7971L5.83008 18.1232L9.18945 12.6252C8.92253 12.3387 8.72721 12.0523 8.60352 11.7658C8.47982 11.4793 8.41797 11.1831 8.41797 10.8771C8.41797 10.5581 8.47982 10.2521 8.60352 9.95916C8.73372 9.65968 8.93229 9.37322 9.19922 9.09979L5.9375 3.54315L7.08008 2.89862L10.293 8.39666C10.4492 8.36411 10.5794 8.34132 10.6836 8.3283C10.7878 8.31528 10.8854 8.30877 10.9766 8.30877C11.5299 8.30877 12.0215 8.47153 12.4512 8.79705C12.8874 9.12257 13.2194 9.59458 13.4473 10.2131H19.8438L19.8535 11.4826H13.4473C13.2259 12.1141 12.8971 12.5991 12.4609 12.9377C12.0312 13.2697 11.5365 13.4357 10.9766 13.4357ZM9.80469 10.8674C9.80469 11.1929 9.92188 11.4728 10.1562 11.7072C10.3971 11.9416 10.6771 12.0588 10.9961 12.0588C11.3216 12.0588 11.6016 11.9416 11.8359 11.7072C12.0768 11.4728 12.1973 11.1929 12.1973 10.8674C12.1973 10.5353 12.0768 10.2554 11.8359 10.0275C11.6016 9.79966 11.3216 9.68572 10.9961 9.68572C10.6771 9.68572 10.3971 9.79966 10.1562 10.0275C9.92188 10.2554 9.80469 10.5353 9.80469 10.8674Z" fill="var(--on-surface)"/>
</svg>
